<?xml version="1.0" encoding="UTF-8"?> <svg xmlns="http://www.w3.org/2000/svg" width="186" height="132" viewBox="0 0 186 132" fill="none"><g clip-path="url(#clip0)"><path d="M111.665 82.8911L111.085 83.3248L92.9016 69.8834L84.2146 63.4644L0.296875 1.43951L0.81312 1.05859L78.7922 19.5009L92.9016 46.708L101.589 63.4644L111.665 82.8911Z" fill="#1C192B"></path><path d="M185.505 1.43951L101.587 63.4644L92.8998 69.8834L74.7161 83.3248L74.1367 82.8911L84.2128 63.4644L92.8998 46.708L107.009 19.5009L184.988 1.05859L185.505 1.43951Z" fill="#1C192B"></path><path d="M111.192 107.393V99.1484H74.375V107.393V122.697V130.942H111.192V122.697H82.4938V107.393H111.192Z" fill="#1C192B"></path><path d="M70.3168 122.697H41.6188V99.1484H33.5V122.697V130.942H41.6188H70.3168V122.697Z" fill="#1C192B"></path><path d="M153.98 99.1861H145.047L139.748 110.923H123.373V99.1484H115.25V130.942H123.373V119.167H139.748L145.047 130.904H153.98L146.819 115.045L153.98 99.1861Z" fill="#1C192B"></path></g><defs><clipPath id="clip0"><rect width="185.7" height="132" fill="white" transform="translate(0.0507812)"></rect></clipPath></defs></svg> 