<?xml version="1.0" encoding="UTF-8"?> <svg xmlns="http://www.w3.org/2000/svg" width="1042" height="368" viewBox="0 0 1042 368" fill="none"><path d="M201.908 142L170.558 215.95L134.858 142H100.658L67.5078 215.2L36.6078 142H0.757812L46.0578 247H87.9078L119.258 180.4L150.458 247H192.458L237.608 142H201.908Z" fill="#DCDFE0"></path><path d="M372.103 170.5V142H246.553V247H372.103V218.5H279.553V208.3H361.903V181H279.553V170.5H372.103Z" fill="#DCDFE0"></path><path d="M555.501 142L509.451 183.1L462.201 142H429.951V247H462.201V186.1L509.451 227.05L555.501 186.55V247H587.751V142H555.501Z" fill="#DCDFE0"></path><path d="M718.903 247H752.353L724.603 142H624.553L596.803 247H630.103L634.453 230.35H714.553L718.903 247ZM641.953 201.1L649.753 170.95H699.103L706.903 201.1H641.953Z" fill="#DCDFE0"></path><path d="M902.299 142H866.599L849.199 179.2H794.449V142H761.299V247H794.449V208H848.299L866.599 247H902.299L877.399 194.5L902.299 142Z" fill="#DCDFE0"></path><path d="M1038.31 170.5V142H912.764V247H1038.31V218.5H945.764V208.3H1028.11V181H945.764V170.5H1038.31Z" fill="#DCDFE0"></path><path d="M38.9521 337.05V261H5.95215V366H128.352V337.05H38.9521Z" fill="#DCDFE0"></path><path d="M268.905 289.5V261H143.354V366H268.905V337.5H176.354V327.3H258.704V300H176.354V289.5H268.905Z" fill="#DCDFE0"></path><path d="M335.503 367.8H375.703C409.303 367.8 432.853 343.65 432.853 313.5V307.05L355.603 306.9V330.9H393.403C391.303 334.5 384.553 338.4 375.703 338.4H335.503C320.953 338.4 311.503 328.05 311.503 314.1C311.503 300.15 320.953 289.95 335.503 289.95H375.703C383.653 289.95 390.403 293.55 394.453 298.65H431.503C425.353 274.5 403.903 259.05 375.703 259.2H335.503C301.903 259.2 277.903 281.1 277.903 313.5C277.903 346.05 302.653 367.8 335.503 367.8Z" fill="#DCDFE0"></path><path d="M570.369 289.5V261H444.819V366H570.369V337.5H477.819V327.3H560.169V300H477.819V289.5H570.369Z" fill="#DCDFE0"></path><path d="M698.398 261V322.8L617.698 261H585.298V366H617.698V303.75L698.398 366H730.798V261H698.398Z" fill="#DCDFE0"></path><path d="M832.095 261H745.845V366H832.095C864.945 366 889.845 345.9 889.845 313.5C889.845 280.95 864.945 261 832.095 261ZM832.095 337.2H778.695V289.8H832.095C846.045 289.8 856.245 300 856.245 313.5C856.245 326.85 846.045 336.9 832.095 337.2Z" fill="#DCDFE0"></path><path d="M1003.55 299.7H944.151C937.401 299.7 934.851 297.3 934.851 294.15C934.851 291 937.701 287.55 950.151 287.55H990.501C1001.3 287.55 1005.35 291.3 1005.95 295.65H1039.1C1039.1 285.45 1033.85 259.2 991.401 259.2H950.151C913.101 259.35 901.251 277.5 901.251 295.8C901.251 314.4 914.451 326.4 940.551 326.4H997.401C1005.05 326.4 1007.6 328.95 1007.6 331.95C1007.6 336 1002.65 338.4 990.801 338.4H950.601C939.951 338.4 933.651 335.55 932.751 330.3H899.601C899.601 344.4 906.501 367.8 948.501 367.8H990.801C1026.05 367.35 1041.35 352.95 1041.35 331.35C1041.35 312.75 1028.45 299.7 1003.55 299.7Z" fill="#DCDFE0"></path><g clip-path="url(#clip0)"><path d="M533.236 49.3106L532.887 49.5718L521.938 41.4781L516.707 37.6129L466.176 0.264524L466.487 0.0351562L513.442 11.1402L521.938 27.523L527.169 37.6129L533.236 49.3106Z" fill="#DCDFE0"></path><path d="M577.701 0.264524L527.17 37.6129L521.939 41.4781L510.99 49.5718L510.641 49.3106L516.708 37.6129L521.939 27.523L530.435 11.1402L577.39 0.0351562L577.701 0.264524Z" fill="#DCDFE0"></path></g><defs><clipPath id="clip0"><rect width="112" height="49.9785" fill="white" transform="translate(466)"></rect></clipPath></defs></svg> 